<?xml version="1.0" encoding="UTF-8"?>
<svg id="Layer_1" data-name="Layer 1" xmlns="http://www.w3.org/2000/svg" viewBox="0 0 351.01 462">
  <defs>
    <style>
      .cls-1 {
        fill: #fff;
        font-family: Ubuntu-Bold, Ubuntu;
        font-size: 98.96px;
        font-weight: 700;
      }

      .cls-2 {
        letter-spacing: -.04em;
      }

      .cls-3 {
        letter-spacing: -.06em;
      }

      .cls-4 {
        fill: #58acf2;
      }
    </style>
  </defs>
  <g id="octopus">
    <path class="cls-4" d="m278.25,262.8c-6.8-3.42-14.51-7.31-16.13-15.83-1.36-7.18.21-17.14,1.73-26.77,1.6-10.11,3.3-20.95,1.58-29.68,20.72-20.25,33.44-47.45,33.44-77.35,0-62.39-55.35-113.16-123.37-113.16S52.13,50.76,52.13,113.16c0,35.07,17.49,66.47,44.89,87.24-.18,7.38,1.45,15.84,3.08,24.19,2.35,12.03,4.77,24.46,1.54,32.38-2.84,6.97-7.09,10.08-13.79,10.08-4.51,0-9.31-1.39-13.55-2.62-3.48-1-6.48-1.87-8.99-1.87-3.49,0-6.01,1.83-6.74,4.9-.53,2.26-.5,5.79,2.68,9.81,5.9,7.45,20.11,13.08,33.05,13.08,17.32,0,29.11-9.24,32.36-25.36,1.3-6.47,3.34-12.6,5.59-18.38.66,5.7,1.5,11.2,2.26,16.18l.76,5.01c2.55,17.27-5.64,27.1-11.61,34.29-3.94,4.74-8.84,10.63-3.41,15.81,2.67,2.55,6.23,3.95,9.92,3.91,5.69,0,11.7-3.02,16.93-8.5,10.2-10.69,15.51-28.25,14.57-48.18-.65-13.75,5.66-22.95,11.79-30.92,2.88,7.35,5.37,15.71,3.51,26.19-7.75,43.75-7.64,69.65.34,79.16,2.43,2.9,5.67,4.44,9.36,4.44h0c.41,0,.82-.02,1.23-.06,2.95-.23,5.68-1.65,7.55-3.93,6.35-7.6,4.81-24.64,3.01-44.38-1.36-14.88-2.76-30.29-.32-40.12,1.86-7.55,4.56-13.31,7.49-17.99,1.49,5.44,2.33,11.84,1,20.3-2.56,16.46,1.66,32.99,11.3,44.24,5.87,6.86,12.97,10.79,19.47,10.79h0c2.83,0,5.42-.74,7.69-2.19,2.19-1.41,2.93-3.22,3.16-4.49.68-3.75-1.88-7.17-5.42-11.9-5.38-7.2-12.76-17.05-10.64-30.83.81-5.26,2.5-11.37,4.28-17.83.51-1.86,1.04-3.77,1.55-5.7.37,2.09.69,4.29.89,6.74,2.26,26.83,19.77,36.34,34.07,36.34h0c7.86,0,13.91-2.91,15.41-7.41,2.19-6.57-4.37-9.88-10.15-12.79h0Zm-102.76-60.79c-34.23,0-57.64-2-57.64-24.72s23.41-24.76,57.64-24.76,57.65,2.03,57.65,24.76-23.4,24.72-57.65,24.72Zm24.88-35.22c-3.98,0-7.19,4.57-7.19,10.21s3.21,10.21,7.19,10.21,7.18-4.56,7.18-10.21-3.22-10.21-7.18-10.21Zm-49.75,0c-3.95,0-7.18,4.57-7.18,10.21s3.23,10.21,7.18,10.21,7.2-4.56,7.2-10.21c0-5.64-3.21-10.21-7.2-10.21Z"/>
  </g>
  <text class="cls-1" transform="translate(0 440.13)"><tspan class="cls-2" x="0" y="0">oc</tspan><tspan class="cls-3" x="102.42" y="0">t</tspan><tspan class="cls-2" x="140.82" y="0">obot</tspan></text>
</svg>